M48
; DRILL file {KiCad 5.1.6-c6e7f7d~87~ubuntu19.10.1} date Fri Oct  2 13:57:18 2020
; FORMAT={-:-/ absolute / inch / decimal}
; #@! TF.CreationDate,2020-10-02T13:57:18+02:00
; #@! TF.GenerationSoftware,Kicad,Pcbnew,5.1.6-c6e7f7d~87~ubuntu19.10.1
; #@! TF.FileFunction,Plated,1,4,PTH
FMAT,2
INCH
T1C0.0118
T2C0.0236
T3C0.0256
T4C0.0295
T5C0.0394
T6C0.0866
%
G90
G05
T1
X3.843Y-1.597
X3.843Y-1.747
X3.843Y-2.447
X3.843Y-3.147
X3.843Y-3.347
X3.843Y-3.497
X3.843Y-3.697
X3.89Y-1.815
X3.89Y-2.61
X3.925Y-2.325
X3.935Y-2.065
X3.935Y-2.19
X3.985Y-2.015
X3.985Y-2.105
X4.0Y-2.325
X4.02Y-2.19
X4.025Y-2.075
X4.043Y-1.597
X4.08Y-2.08
X4.08Y-2.19
X4.093Y-3.447
X4.095Y-2.29
X4.11Y-2.0
X4.12Y-1.61
X4.12Y-1.8
X4.12Y-1.87
X4.14Y-2.03
X4.14Y-2.53
X4.14Y-2.61
X4.14Y-2.8
X4.15Y-1.96
X4.15Y-3.002
X4.17Y-2.745
X4.17Y-2.87
X4.18Y-2.35
X4.18Y-2.67
X4.19Y-2.91
X4.193Y-3.697
X4.2Y-2.25
X4.21Y-1.885
X4.21Y-3.04
X4.21Y-3.12
X4.21Y-3.18
X4.21Y-3.28
X4.21Y-3.34
X4.21Y-3.46
X4.22Y-2.43
X4.224Y-3.4
X4.23Y-2.61
X4.23Y-2.72
X4.235Y-3.54
X4.24Y-2.29
X4.24Y-2.51
X4.24Y-2.56
X4.25Y-2.8
X4.25Y-2.87
X4.26Y-2.34
X4.26Y-2.4
X4.26Y-2.46
X4.26Y-3.292
X4.264Y-2.954
X4.27Y-2.2
X4.275Y-1.885
X4.28Y-2.66
X4.28Y-2.77
X4.28Y-2.91
X4.285Y-3.54
X4.3Y-3.04
X4.3Y-3.12
X4.3Y-3.18
X4.3Y-3.398
X4.3Y-3.45
X4.31Y-2.01
X4.31Y-2.1
X4.31Y-2.24
X4.32Y-1.97
X4.32Y-2.34
X4.32Y-2.4
X4.32Y-2.46
X4.32Y-2.594
X4.32Y-3.218
X4.35Y-3.4
X4.35Y-3.682
X4.354Y-2.306
X4.355Y-2.608
X4.356Y-3.242
X4.36Y-2.1
X4.36Y-3.04
X4.37Y-3.48
X4.373Y-1.889
X4.39Y-2.49
X4.39Y-2.56
X4.39Y-2.88
X4.39Y-2.93
X4.396Y-1.578
X4.398Y-3.266
X4.4Y-1.978
X4.4Y-2.086
X4.4Y-3.54
X4.41Y-3.44
X4.43Y-2.606
X4.43Y-2.99
X4.432Y-2.644
X4.436Y-3.314
X4.438Y-2.1
X4.44Y-3.12
X4.446Y-2.502
X4.45Y-1.878
X4.45Y-3.68
X4.46Y-2.4
X4.46Y-2.835
X4.468Y-2.606
X4.47Y-2.19
X4.47Y-2.644
X4.47Y-3.2
X4.47Y-3.27
X4.48Y-1.81
X4.48Y-1.97
X4.48Y-3.44
X4.485Y-2.255
X4.485Y-2.335
X4.5Y-2.13
X4.5Y-2.87
X4.5Y-3.06
X4.505Y-2.97
X4.51Y-2.56
X4.51Y-2.68
X4.51Y-3.3
X4.51Y-3.36
X4.52Y-1.902
X4.52Y-1.94
X4.5209Y-2.4591
X4.5209Y-2.51
X4.54Y-2.255
X4.54Y-2.36
X4.5588Y-2.6152
X4.56Y-2.13
X4.565Y-2.845
X4.565Y-2.935
X4.5662Y-3.0098
X4.57Y-1.94
X4.57Y-2.45
X4.57Y-3.06
X4.58Y-3.44
X4.5898Y-2.9862
X4.59Y-2.74
X4.59Y-3.48
X4.6Y-2.205
X4.602Y-2.512
X4.61Y-2.41
X4.612Y-1.91
X4.62Y-1.82
X4.62Y-3.3
X4.62Y-3.36
X4.625Y-2.84
X4.63Y-2.135
X4.63Y-2.7
X4.63Y-3.16
X4.64Y-2.76
X4.646Y-3.484
X4.65Y-2.53
X4.66Y-3.0
X4.662Y-3.218
X4.67Y-2.66
X4.675Y-2.19
X4.675Y-2.285
X4.675Y-2.385
X4.69Y-2.49
X4.69Y-2.71
X4.69Y-2.84
X4.69Y-2.904
X4.69Y-3.1
X4.7Y-3.16
X4.72Y-2.06
X4.72Y-3.0
X4.725Y-2.105
X4.726Y-3.436
X4.728Y-3.188
X4.745Y-3.3
X4.752Y-1.91
X4.758Y-3.158
X4.77Y-2.38
X4.77Y-2.52
X4.77Y-2.64
X4.77Y-2.8
X4.775Y-3.525
X4.79Y-3.0
X4.793Y-3.697
X4.81Y-3.13
X4.814Y-3.438
X4.8223Y-2.792
X4.825Y-2.38
X4.825Y-2.49
X4.825Y-2.57
X4.825Y-2.71
X4.8263Y-1.82
X4.84Y-3.62
X4.845Y-2.215
X4.85Y-1.94
X4.85Y-2.06
X4.85Y-3.0
X4.86Y-2.815
X4.86Y-2.87
X4.8625Y-2.4195
X4.865Y-2.54
X4.865Y-2.635
X4.865Y-2.735
X4.87Y-1.82
X4.875Y-2.165
X4.88Y-3.242
X4.885Y-2.2
X4.895Y-3.51
X4.9037Y-1.9177
X4.91Y-2.495
X4.915Y-2.23
X4.925Y-2.54
X4.925Y-2.635
X4.925Y-2.735
X4.93Y-1.94
X4.93Y-2.06
X4.93Y-2.37
X4.93Y-2.445
X4.932Y-2.804
X4.944Y-3.128
X4.945Y-2.165
X4.95Y-3.3
X4.955Y-1.82
X4.955Y-2.1
X4.96Y-2.34
X4.96Y-2.904
X4.96Y-3.0
X4.96Y-3.62
X4.97Y-2.585
X4.98Y-2.31
X4.985Y-2.37
X4.99Y-2.132
X4.99Y-2.445
X4.99Y-2.495
X4.99Y-2.665
X5.005Y-2.735
X5.008Y-2.098
X5.01Y-1.94
X5.01Y-2.06
X5.014Y-1.834
X5.015Y-2.165
X5.018Y-2.818
X5.02Y-2.29
X5.02Y-2.87
X5.03Y-2.4
X5.048Y-1.876
X5.05Y-1.834
X5.05Y-2.665
X5.06Y-3.0
X5.064Y-1.944
X5.07Y-2.904
X5.074Y-3.08
X5.08Y-2.165
X5.08Y-2.29
X5.082Y-3.17
X5.088Y-3.366
X5.093Y-3.697
X5.095Y-2.795
X5.1Y-1.94
X5.1Y-2.06
X5.1Y-2.38
X5.1Y-2.44
X5.128Y-3.532
X5.13Y-3.14
X5.15Y-1.87
X5.15Y-2.165
X5.15Y-2.91
X5.15Y-3.366
X5.156Y-3.46
X5.16Y-2.36
X5.163Y-2.667
X5.17Y-2.26
X5.17Y-2.48
X5.18Y-1.94
X5.18Y-2.06
X5.18Y-2.98
X5.18Y-3.095
X5.18Y-3.155
X5.18Y-3.22
X5.19Y-2.87
X5.1925Y-2.385
X5.2Y-3.38
X5.21Y-2.26
X5.211Y-2.739
X5.22Y-2.165
X5.222Y-1.942
X5.23Y-2.98
X5.24Y-3.22
X5.24Y-3.486
X5.25Y-1.874
X5.252Y-3.0917
X5.256Y-2.7538
X5.26Y-1.94
X5.26Y-2.06
X5.26Y-3.29
X5.28Y-2.804
X5.28Y-2.87
X5.283Y-2.377
X5.286Y-2.164
X5.294Y-1.8331
X5.296Y-3.394
X5.3Y-2.834
X5.3028Y-2.6272
X5.304Y-2.94
X5.305Y-2.535
X5.305Y-2.58
X5.31Y-3.5
X5.318Y-2.868
X5.32Y-3.19
X5.323Y-2.337
X5.33Y-1.94
X5.33Y-2.06
X5.336Y-2.664
X5.34Y-2.27
X5.34Y-2.894
X5.344Y-3.38
X5.36Y-3.22
X5.3626Y-2.8671
X5.374Y-2.69
X5.38Y-2.156
X5.38Y-3.29
X5.382Y-2.894
X5.39Y-1.9
X5.39Y-2.03
X5.39Y-3.38
X5.39Y-3.46
X5.393Y-3.572
X5.393Y-3.697
X5.41Y-3.15
X5.42Y-2.25
X5.422Y-2.694
X5.4341Y-3.19
X5.435Y-2.74
X5.455Y-2.545
X5.455Y-2.58
X5.455Y-2.615
X5.456Y-3.066
X5.46Y-1.9
X5.47Y-3.15
X5.47Y-3.38
X5.4737Y-2.4238
X5.482Y-1.8225
X5.4833Y-3.02
X5.485Y-3.495
X5.49Y-2.545
X5.49Y-2.58
X5.49Y-2.615
X5.505Y-3.075
X5.51Y-2.15
X5.5167Y-3.02
X5.52Y-3.27
X5.522Y-2.432
X5.525Y-2.545
X5.525Y-2.58
X5.525Y-2.615
X5.53Y-1.9
X5.535Y-2.27
X5.5377Y-2.664
X5.54Y-2.388
X5.546Y-3.102
X5.56Y-2.244
X5.56Y-2.632
X5.57Y-3.066
X5.57Y-3.288
X5.572Y-2.416
X5.578Y-1.8554
X5.59Y-2.68
X5.592Y-2.724
X5.592Y-2.996
X5.6Y-1.9
X5.6Y-2.01
X5.602Y-2.464
X5.6061Y-2.05
X5.618Y-2.654
X5.625Y-3.005
X5.626Y-1.812
X5.63Y-1.62
X5.632Y-2.9403
X5.6423Y-2.0143
X5.644Y-2.522
X5.6462Y-2.4882
X5.65Y-3.08
X5.658Y-2.992
X5.658Y-3.0458
X5.66Y-3.265
X5.6622Y-1.7158
X5.666Y-2.81
X5.67Y-1.82
X5.67Y-1.9
X5.67Y-2.11
X5.675Y-1.77
X5.6858Y-1.6922
X5.6886Y-2.588
X5.69Y-2.834
X5.692Y-2.284
X5.693Y-3.697
X5.7Y-2.01
X5.7Y-3.58
X5.704Y-2.386
X5.72Y-2.16
X5.72Y-2.31
X5.7221Y-2.588
X5.725Y-3.015
X5.726Y-2.04
X5.727Y-2.803
X5.727Y-2.966
X5.73Y-1.9
X5.735Y-2.112
X5.742Y-2.38
X5.745Y-1.59
X5.745Y-1.64
X5.758Y-2.438
X5.76Y-2.06
X5.765Y-3.06
X5.77Y-2.21
X5.776Y-2.314
X5.782Y-1.932
X5.786Y-2.566
X5.786Y-2.996
X5.79Y-3.265
X5.792Y-2.28
X5.794Y-2.524
X5.795Y-2.355
X5.81Y-2.11
X5.8163Y-2.49
X5.82Y-2.25
X5.825Y-2.6
X5.825Y-2.95
X5.83Y-1.98
X5.84Y-3.06
X5.844Y-3.282
X5.85Y-2.54
X5.858Y-2.932
X5.86Y-2.16
X5.865Y-2.35
X5.875Y-1.915
X5.88Y-2.03
X5.886Y-1.826
X5.8882Y-3.3622
X5.9Y-2.892
X5.91Y-2.21
X5.91Y-2.266
X5.9117Y-2.8217
X5.9197Y-3.244
X5.928Y-1.948
X5.93Y-2.08
X5.934Y-1.8368
X5.935Y-3.495
X5.942Y-2.94
X5.942Y-3.408
X5.95Y-1.63
X5.95Y-1.735
X5.952Y-1.892
X5.968Y-3.15
X5.98Y-3.38
X5.99Y-1.95
X5.99Y-2.0
X5.99Y-2.05
X5.99Y-2.1
X5.99Y-2.24
X5.99Y-2.29
X5.99Y-2.34
X5.99Y-2.47
X5.99Y-2.52
X5.99Y-2.57
X5.99Y-2.71
X5.99Y-2.76
X5.99Y-2.81
X5.99Y-2.95
X5.99Y-3.0
X5.99Y-3.05
X5.99Y-3.1
X5.993Y-3.697
X5.995Y-2.875
X6.015Y-1.89
X6.035Y-2.875
X6.04Y-1.95
X6.04Y-2.216
X6.04Y-3.1
X6.043Y-3.572
X6.044Y-2.2525
X6.055Y-2.79
X6.06Y-2.724
X6.06Y-3.025
X6.0626Y-2.5946
X6.068Y-3.447
X6.07Y-2.678
X6.0774Y-2.2522
X6.0777Y-2.548
X6.09Y-1.95
X6.09Y-3.1
X6.093Y-1.597
X6.093Y-1.722
X6.0954Y-2.332
X6.098Y-2.142
X6.1Y-2.742
X6.124Y-2.098
X6.125Y-1.89
X6.13Y-2.166
X6.14Y-1.95
X6.14Y-2.48
X6.14Y-2.535
X6.14Y-2.59
X6.14Y-2.885
X6.14Y-3.1
X6.148Y-2.374
X6.155Y-3.025
X6.165Y-3.62
X6.18Y-2.425
X6.18Y-3.16
X6.18Y-3.275
X6.18Y-3.46
X6.195Y-2.7
X6.195Y-2.77
X6.225Y-2.535
X6.26Y-2.885
X6.275Y-2.83
X6.275Y-3.16
X6.275Y-3.27
X6.275Y-3.46
X6.28Y-2.405
X6.28Y-2.44
X6.285Y-3.625
X6.293Y-1.597
X6.293Y-3.697
X6.3Y-1.95
X6.3Y-3.1
X6.31Y-1.885
X6.31Y-3.025
X6.322Y-2.364
X6.328Y-2.088
X6.336Y-2.288
X6.35Y-1.63
X6.35Y-1.74
X6.35Y-1.95
X6.35Y-2.332
X6.35Y-3.1
X6.352Y-2.118
X6.37Y-1.81
X6.376Y-2.088
X6.376Y-2.364
X6.385Y-2.795
X6.385Y-2.915
X6.4Y-1.95
X6.4Y-3.1
X6.435Y-1.885
X6.44Y-3.025
X6.45Y-2.202
X6.45Y-2.278
X6.475Y-2.51
X6.485Y-2.03
X6.485Y-2.145
X6.51Y-1.805
X6.51Y-2.28
X6.518Y-1.697
X6.53Y-2.87
X6.545Y-2.575
X6.545Y-2.715
X6.56Y-1.95
X6.56Y-2.08
X6.56Y-2.19
X6.56Y-3.1
X6.593Y-1.597
X6.593Y-3.697
X6.604Y-2.8
X6.605Y-2.935
X6.605Y-3.025
X6.61Y-1.95
X6.61Y-2.51
X6.61Y-2.745
X6.61Y-3.1
X6.63Y-2.03
X6.635Y-2.14
X6.66Y-1.95
X6.66Y-3.1
X6.668Y-3.397
X6.71Y-1.95
X6.71Y-2.0
X6.71Y-2.05
X6.71Y-2.1
X6.71Y-2.24
X6.71Y-2.29
X6.71Y-2.34
X6.71Y-2.47
X6.71Y-2.52
X6.71Y-2.57
X6.71Y-2.71
X6.71Y-2.76
X6.71Y-2.81
X6.71Y-2.95
X6.71Y-3.0
X6.71Y-3.05
X6.71Y-3.1
X6.725Y-1.885
T3
X5.64Y-3.15
X5.64Y-3.2
X5.69Y-3.15
X5.69Y-3.2
X5.74Y-3.15
X5.74Y-3.2
X5.79Y-3.15
X5.79Y-3.2
X5.84Y-3.15
X5.84Y-3.2
T4
X4.1Y-2.4
X4.1Y-2.4787
X4.1Y-3.23
X4.1Y-3.3087
T5
X4.66Y-2.0
X4.76Y-2.0
X4.05Y-1.9
X4.05Y-2.0
X4.25Y-1.65
X4.25Y-1.75
X4.35Y-1.65
X4.35Y-1.75
X4.45Y-1.65
X4.45Y-1.75
X4.55Y-1.65
X4.55Y-1.75
X4.65Y-1.65
X4.65Y-1.75
X4.75Y-1.65
X4.75Y-1.75
X4.85Y-1.65
X4.85Y-1.75
X4.95Y-1.65
X4.95Y-1.75
X5.05Y-1.65
X5.05Y-1.75
X5.15Y-1.65
X5.15Y-1.75
X5.25Y-1.65
X5.25Y-1.75
X5.35Y-1.65
X5.35Y-1.75
X5.45Y-1.65
X5.45Y-1.75
X5.55Y-1.65
X5.55Y-1.75
X4.2Y-2.05
X4.2Y-2.15
X4.562Y-3.152
X4.562Y-3.252
X5.62Y-3.447
X5.72Y-3.447
X5.82Y-3.447
X3.89Y-1.9
X3.89Y-2.0
T6
X6.667Y-3.59
X3.95Y-1.7
X3.95Y-3.59
X6.667Y-1.7
T2
G00X3.8952Y-2.6839
M15
G01X3.8441Y-2.6839
M16
G05
G00X3.8952Y-3.0241
M15
G01X3.8441Y-3.0241
M16
G05
G00X4.0399Y-2.6839
M15
G01X4.0006Y-2.6839
M16
G05
G00X4.0399Y-3.0241
M15
G01X4.0006Y-3.0241
M16
G05
T0
M30
