%TF.GenerationSoftware,KiCad,Pcbnew,5.1.6-c6e7f7d~87~ubuntu19.10.1*%
%TF.CreationDate,2020-10-02T13:56:07+02:00*%
%TF.ProjectId,tardigrade,74617264-6967-4726-9164-652e6b696361,rev?*%
%TF.SameCoordinates,Original*%
%TF.FileFunction,Soldermask,Bot*%
%TF.FilePolarity,Negative*%
%FSLAX46Y46*%
G04 Gerber Fmt 4.6, Leading zero omitted, Abs format (unit mm)*
G04 Created by KiCad (PCBNEW 5.1.6-c6e7f7d~87~ubuntu19.10.1) date 2020-10-02 13:56:07*
%MOMM*%
%LPD*%
G01*
G04 APERTURE LIST*
%ADD10O,1.800000X1.800000*%
%ADD11R,1.800000X1.800000*%
%ADD12C,4.500000*%
%ADD13R,5.200000X2.600000*%
%ADD14C,17.900000*%
%ADD15O,1.100000X1.100000*%
%ADD16R,1.100000X1.100000*%
%ADD17O,2.100000X1.100000*%
%ADD18C,0.700000*%
%ADD19O,2.400000X1.100000*%
%ADD20O,0.700000X0.950000*%
%ADD21O,1.850000X1.300000*%
G04 APERTURE END LIST*
D10*
%TO.C,J8*%
X140970000Y-44450000D03*
X140970000Y-41910000D03*
X138430000Y-44450000D03*
X138430000Y-41910000D03*
X135890000Y-44450000D03*
X135890000Y-41910000D03*
X133350000Y-44450000D03*
X133350000Y-41910000D03*
X130810000Y-44450000D03*
X130810000Y-41910000D03*
X128270000Y-44450000D03*
X128270000Y-41910000D03*
X125730000Y-44450000D03*
X125730000Y-41910000D03*
X123190000Y-44450000D03*
X123190000Y-41910000D03*
X120650000Y-44450000D03*
X120650000Y-41910000D03*
X118110000Y-44450000D03*
X118110000Y-41910000D03*
X115570000Y-44450000D03*
X115570000Y-41910000D03*
X113030000Y-44450000D03*
X113030000Y-41910000D03*
X110490000Y-44450000D03*
X110490000Y-41910000D03*
X107950000Y-44450000D03*
D11*
X107950000Y-41910000D03*
%TD*%
D12*
%TO.C,H2*%
X169341800Y-43180000D03*
%TD*%
D13*
%TO.C,U4*%
X161290000Y-67290000D03*
X161290000Y-90190000D03*
D14*
X161290000Y-78740000D03*
%TD*%
D10*
%TO.C,JP16*%
X98806000Y-50800000D03*
D11*
X98806000Y-48260000D03*
%TD*%
D10*
%TO.C,JP4*%
X120904000Y-50800000D03*
D11*
X118364000Y-50800000D03*
%TD*%
D10*
%TO.C,JP3*%
X102870000Y-48260000D03*
D11*
X102870000Y-50800000D03*
%TD*%
D10*
%TO.C,JP2*%
X106680000Y-52070000D03*
D11*
X106680000Y-54610000D03*
%TD*%
D10*
%TO.C,JP1*%
X115874800Y-82600800D03*
D11*
X115874800Y-80060800D03*
%TD*%
D10*
%TO.C,J7*%
X147828000Y-87553800D03*
X145288000Y-87553800D03*
D11*
X142748000Y-87553800D03*
%TD*%
D15*
%TO.C,J6*%
X148336000Y-80010000D03*
X148336000Y-81280000D03*
X147066000Y-80010000D03*
X147066000Y-81280000D03*
X145796000Y-80010000D03*
X145796000Y-81280000D03*
X144526000Y-80010000D03*
X144526000Y-81280000D03*
X143256000Y-80010000D03*
D16*
X143256000Y-81280000D03*
%TD*%
D17*
%TO.C,J5*%
X102114300Y-76811600D03*
X102114300Y-68171600D03*
D18*
X101389300Y-69491600D03*
D19*
X98289300Y-68171600D03*
D20*
X101389300Y-75491600D03*
D19*
X98289300Y-76811600D03*
%TD*%
D21*
%TO.C,J2*%
X104140000Y-84042000D03*
G36*
G01*
X103485832Y-81392000D02*
X104794168Y-81392000D01*
G75*
G02*
X105065000Y-81662832I0J-270832D01*
G01*
X105065000Y-82421168D01*
G75*
G02*
X104794168Y-82692000I-270832J0D01*
G01*
X103485832Y-82692000D01*
G75*
G02*
X103215000Y-82421168I0J270832D01*
G01*
X103215000Y-81662832D01*
G75*
G02*
X103485832Y-81392000I270832J0D01*
G01*
G37*
%TD*%
%TO.C,J1*%
X104140000Y-62960000D03*
G36*
G01*
X103485832Y-60310000D02*
X104794168Y-60310000D01*
G75*
G02*
X105065000Y-60580832I0J-270832D01*
G01*
X105065000Y-61339168D01*
G75*
G02*
X104794168Y-61610000I-270832J0D01*
G01*
X103485832Y-61610000D01*
G75*
G02*
X103215000Y-61339168I0J270832D01*
G01*
X103215000Y-60580832D01*
G75*
G02*
X103485832Y-60310000I270832J0D01*
G01*
G37*
%TD*%
D12*
%TO.C,H4*%
X169341800Y-91186000D03*
%TD*%
%TO.C,H3*%
X100330000Y-91186000D03*
%TD*%
%TO.C,H1*%
X100330000Y-43180000D03*
%TD*%
M02*
